<mxfile host="app.diagrams.net" modified="2023-11-06T10:52:43.173Z" agent="Mozilla/5.0 (Windows NT 10.0; Win64; x64) AppleWebKit/537.36 (KHTML, like Gecko) Chrome/118.0.0.0 Safari/537.36" etag="iXt81h4pkvoqbvqADWoP" version="22.0.8" type="device">
  <diagram name="Page-1" id="c7488fd3-1785-93aa-aadb-54a6760d102a">
    <mxGraphModel dx="1688" dy="656" grid="1" gridSize="10" guides="1" tooltips="1" connect="1" arrows="1" fold="1" page="1" pageScale="1" pageWidth="1100" pageHeight="850" background="none" math="0" shadow="0">
      <root>
        <mxCell id="0" />
        <mxCell id="1" parent="0" />
        <mxCell id="2b4e8129b02d487f-1" value="w" style="swimlane;html=1;childLayout=stackLayout;horizontal=1;startSize=20;horizontalStack=0;rounded=0;shadow=0;labelBackgroundColor=none;strokeWidth=1;fontFamily=Verdana;fontSize=8;align=center;swimlaneLine=1;" parent="1" vertex="1">
          <mxGeometry x="190" y="30" width="730" height="410" as="geometry" />
        </mxCell>
        <mxCell id="2b4e8129b02d487f-2" value="front_end" style="swimlane;html=1;startSize=20;horizontal=0;" parent="2b4e8129b02d487f-1" vertex="1">
          <mxGeometry y="20" width="730" height="150" as="geometry" />
        </mxCell>
        <mxCell id="2b4e8129b02d487f-18" style="edgeStyle=orthogonalEdgeStyle;rounded=0;html=1;labelBackgroundColor=none;startArrow=none;startFill=0;startSize=5;endArrow=classicThin;endFill=1;endSize=5;jettySize=auto;orthogonalLoop=1;strokeWidth=1;fontFamily=Verdana;fontSize=8;entryX=0.074;entryY=0.424;entryDx=0;entryDy=0;entryPerimeter=0;" parent="2b4e8129b02d487f-2" source="2b4e8129b02d487f-5" edge="1">
          <mxGeometry relative="1" as="geometry">
            <mxPoint x="128.87999999999988" y="75.43999999999994" as="targetPoint" />
          </mxGeometry>
        </mxCell>
        <mxCell id="2b4e8129b02d487f-5" value="&lt;font style=&quot;font-size: 15px;&quot;&gt;start&lt;/font&gt;" style="ellipse;whiteSpace=wrap;html=1;rounded=0;shadow=0;labelBackgroundColor=none;strokeWidth=1;fontFamily=Verdana;fontSize=8;align=center;" parent="2b4e8129b02d487f-2" vertex="1">
          <mxGeometry x="30" y="40" width="70" height="70" as="geometry" />
        </mxCell>
        <mxCell id="Ufu5qyInsuBGxWGtbbvC-26" value="&lt;font style=&quot;font-size: 9px;&quot;&gt;스캐너 종류 지정&lt;/font&gt;" style="shape=parallelogram;perimeter=parallelogramPerimeter;whiteSpace=wrap;html=1;fixedSize=1;" vertex="1" parent="2b4e8129b02d487f-2">
          <mxGeometry x="120" y="50" width="90" height="50" as="geometry" />
        </mxCell>
        <mxCell id="Ufu5qyInsuBGxWGtbbvC-30" value="&lt;span style=&quot;font-size: 8px;&quot;&gt;포트&lt;br&gt;최소, 최대 지정&lt;br&gt;&lt;/span&gt;" style="shape=parallelogram;perimeter=parallelogramPerimeter;whiteSpace=wrap;html=1;fixedSize=1;" vertex="1" parent="2b4e8129b02d487f-2">
          <mxGeometry x="220" y="50" width="90" height="50" as="geometry" />
        </mxCell>
        <mxCell id="Ufu5qyInsuBGxWGtbbvC-36" style="edgeStyle=orthogonalEdgeStyle;rounded=0;orthogonalLoop=1;jettySize=auto;html=1;entryX=0.25;entryY=1;entryDx=0;entryDy=0;" edge="1" parent="2b4e8129b02d487f-2">
          <mxGeometry relative="1" as="geometry">
            <mxPoint x="100" y="240" as="sourcePoint" />
            <mxPoint x="232.5" y="100" as="targetPoint" />
          </mxGeometry>
        </mxCell>
        <mxCell id="Ufu5qyInsuBGxWGtbbvC-45" value="IP입력" style="shape=parallelogram;perimeter=parallelogramPerimeter;whiteSpace=wrap;html=1;fixedSize=1;" vertex="1" parent="2b4e8129b02d487f-2">
          <mxGeometry x="330" y="50" width="100" height="50" as="geometry" />
        </mxCell>
        <mxCell id="Ufu5qyInsuBGxWGtbbvC-56" value="포트와 서비스&lt;br&gt;출력" style="shape=document;whiteSpace=wrap;html=1;boundedLbl=1;" vertex="1" parent="2b4e8129b02d487f-2">
          <mxGeometry x="470" y="45" width="90" height="60" as="geometry" />
        </mxCell>
        <mxCell id="Ufu5qyInsuBGxWGtbbvC-67" value="취약점 출력" style="shape=document;whiteSpace=wrap;html=1;boundedLbl=1;" vertex="1" parent="2b4e8129b02d487f-2">
          <mxGeometry x="610" y="45" width="90" height="60" as="geometry" />
        </mxCell>
        <mxCell id="SpS_sAJP1LZ70a7ccQSR-10" value="back_end" style="swimlane;horizontal=0;whiteSpace=wrap;html=1;startSize=20;" parent="1" vertex="1">
          <mxGeometry x="190" y="200" width="730" height="240" as="geometry" />
        </mxCell>
        <mxCell id="Ufu5qyInsuBGxWGtbbvC-27" value="&lt;font style=&quot;font-size: 10px;&quot;&gt;스캐너 종류&lt;br&gt;지정&lt;/font&gt;" style="rhombus;whiteSpace=wrap;html=1;" vertex="1" parent="SpS_sAJP1LZ70a7ccQSR-10">
          <mxGeometry x="100" y="50" width="80" height="80" as="geometry" />
        </mxCell>
        <mxCell id="Ufu5qyInsuBGxWGtbbvC-33" value="Yes&lt;br&gt;" style="text;html=1;align=center;verticalAlign=middle;resizable=0;points=[];autosize=1;strokeColor=none;fillColor=none;" vertex="1" parent="SpS_sAJP1LZ70a7ccQSR-10">
          <mxGeometry x="140" y="130" width="40" height="30" as="geometry" />
        </mxCell>
        <mxCell id="Ufu5qyInsuBGxWGtbbvC-34" value="&lt;font style=&quot;font-size: 8px;&quot;&gt;종류에 맞는 스캐너 함수 호출&lt;/font&gt;" style="whiteSpace=wrap;html=1;" vertex="1" parent="SpS_sAJP1LZ70a7ccQSR-10">
          <mxGeometry x="80" y="165" width="120" height="60" as="geometry" />
        </mxCell>
        <mxCell id="Ufu5qyInsuBGxWGtbbvC-38" value="" style="endArrow=classic;html=1;rounded=0;exitX=0.5;exitY=0.973;exitDx=0;exitDy=0;exitPerimeter=0;entryX=0.5;entryY=0;entryDx=0;entryDy=0;" edge="1" parent="SpS_sAJP1LZ70a7ccQSR-10" source="Ufu5qyInsuBGxWGtbbvC-27" target="Ufu5qyInsuBGxWGtbbvC-34">
          <mxGeometry width="50" height="50" relative="1" as="geometry">
            <mxPoint x="65" y="130" as="sourcePoint" />
            <mxPoint x="115" y="80" as="targetPoint" />
          </mxGeometry>
        </mxCell>
        <mxCell id="Ufu5qyInsuBGxWGtbbvC-39" value="No" style="text;html=1;align=center;verticalAlign=middle;resizable=0;points=[];autosize=1;strokeColor=none;fillColor=none;" vertex="1" parent="SpS_sAJP1LZ70a7ccQSR-10">
          <mxGeometry x="180" y="60" width="40" height="30" as="geometry" />
        </mxCell>
        <mxCell id="Ufu5qyInsuBGxWGtbbvC-41" value="&lt;font style=&quot;font-size: 8px;&quot;&gt;포트&lt;br&gt;최소, 최대 지정&lt;/font&gt;" style="rhombus;whiteSpace=wrap;html=1;" vertex="1" parent="SpS_sAJP1LZ70a7ccQSR-10">
          <mxGeometry x="250" y="50" width="80" height="80" as="geometry" />
        </mxCell>
        <mxCell id="Ufu5qyInsuBGxWGtbbvC-51" style="edgeStyle=orthogonalEdgeStyle;rounded=0;orthogonalLoop=1;jettySize=auto;html=1;" edge="1" parent="SpS_sAJP1LZ70a7ccQSR-10" source="Ufu5qyInsuBGxWGtbbvC-43">
          <mxGeometry relative="1" as="geometry">
            <mxPoint x="380" y="-50" as="targetPoint" />
          </mxGeometry>
        </mxCell>
        <mxCell id="Ufu5qyInsuBGxWGtbbvC-44" style="edgeStyle=orthogonalEdgeStyle;rounded=0;orthogonalLoop=1;jettySize=auto;html=1;entryX=0.417;entryY=0.033;entryDx=0;entryDy=0;entryPerimeter=0;" edge="1" parent="SpS_sAJP1LZ70a7ccQSR-10" source="Ufu5qyInsuBGxWGtbbvC-41" target="Ufu5qyInsuBGxWGtbbvC-43">
          <mxGeometry relative="1" as="geometry" />
        </mxCell>
        <mxCell id="Ufu5qyInsuBGxWGtbbvC-52" value="No" style="text;html=1;align=center;verticalAlign=middle;resizable=0;points=[];autosize=1;strokeColor=none;fillColor=none;" vertex="1" parent="SpS_sAJP1LZ70a7ccQSR-10">
          <mxGeometry x="330" y="60" width="40" height="30" as="geometry" />
        </mxCell>
        <mxCell id="Ufu5qyInsuBGxWGtbbvC-53" value="Yes" style="text;html=1;align=center;verticalAlign=middle;resizable=0;points=[];autosize=1;strokeColor=none;fillColor=none;" vertex="1" parent="SpS_sAJP1LZ70a7ccQSR-10">
          <mxGeometry x="290" y="130" width="40" height="30" as="geometry" />
        </mxCell>
        <mxCell id="Ufu5qyInsuBGxWGtbbvC-54" value="&lt;font style=&quot;font-size: 9px;&quot;&gt;서비스 버전별 취약점&lt;/font&gt;" style="shape=datastore;whiteSpace=wrap;html=1;" vertex="1" parent="SpS_sAJP1LZ70a7ccQSR-10">
          <mxGeometry x="630" y="60" width="60" height="60" as="geometry" />
        </mxCell>
        <mxCell id="Ufu5qyInsuBGxWGtbbvC-55" value="&lt;font style=&quot;font-size: 10px;&quot;&gt;입력 받은 스캐너와&lt;br&gt;포트 최소, 최대값, IP값을 가지고 스캐너 작동&lt;/font&gt;" style="rounded=0;whiteSpace=wrap;html=1;" vertex="1" parent="SpS_sAJP1LZ70a7ccQSR-10">
          <mxGeometry x="430" y="70" width="120" height="60" as="geometry" />
        </mxCell>
        <mxCell id="Ufu5qyInsuBGxWGtbbvC-69" style="edgeStyle=orthogonalEdgeStyle;rounded=0;orthogonalLoop=1;jettySize=auto;html=1;entryX=0.49;entryY=1.057;entryDx=0;entryDy=0;entryPerimeter=0;" edge="1" parent="SpS_sAJP1LZ70a7ccQSR-10" source="Ufu5qyInsuBGxWGtbbvC-34" target="Ufu5qyInsuBGxWGtbbvC-55">
          <mxGeometry relative="1" as="geometry" />
        </mxCell>
        <mxCell id="Ufu5qyInsuBGxWGtbbvC-43" value="&lt;font style=&quot;font-size: 10px;&quot;&gt;포트 최소, 최대값 지정&lt;/font&gt;" style="whiteSpace=wrap;html=1;" vertex="1" parent="SpS_sAJP1LZ70a7ccQSR-10">
          <mxGeometry x="240" y="165" width="120" height="60" as="geometry" />
        </mxCell>
        <mxCell id="Ufu5qyInsuBGxWGtbbvC-75" style="edgeStyle=orthogonalEdgeStyle;rounded=0;orthogonalLoop=1;jettySize=auto;html=1;entryX=0;entryY=0.663;entryDx=0;entryDy=0;entryPerimeter=0;" edge="1" parent="SpS_sAJP1LZ70a7ccQSR-10" source="Ufu5qyInsuBGxWGtbbvC-55" target="Ufu5qyInsuBGxWGtbbvC-54">
          <mxGeometry relative="1" as="geometry" />
        </mxCell>
        <mxCell id="Ufu5qyInsuBGxWGtbbvC-29" value="" style="endArrow=classic;html=1;rounded=0;exitX=0.25;exitY=1;exitDx=0;exitDy=0;entryX=0.5;entryY=0;entryDx=0;entryDy=0;" edge="1" parent="1" source="Ufu5qyInsuBGxWGtbbvC-26" target="Ufu5qyInsuBGxWGtbbvC-27">
          <mxGeometry width="50" height="50" relative="1" as="geometry">
            <mxPoint x="520" y="190" as="sourcePoint" />
            <mxPoint x="570" y="140" as="targetPoint" />
          </mxGeometry>
        </mxCell>
        <mxCell id="Ufu5qyInsuBGxWGtbbvC-42" value="" style="endArrow=classic;html=1;rounded=0;exitX=0.782;exitY=0.988;exitDx=0;exitDy=0;entryX=0.5;entryY=0;entryDx=0;entryDy=0;exitPerimeter=0;" edge="1" parent="1" source="Ufu5qyInsuBGxWGtbbvC-30" target="Ufu5qyInsuBGxWGtbbvC-41">
          <mxGeometry width="50" height="50" relative="1" as="geometry">
            <mxPoint x="520" y="270" as="sourcePoint" />
            <mxPoint x="570" y="220" as="targetPoint" />
          </mxGeometry>
        </mxCell>
        <mxCell id="Ufu5qyInsuBGxWGtbbvC-50" style="edgeStyle=orthogonalEdgeStyle;rounded=0;orthogonalLoop=1;jettySize=auto;html=1;entryX=0.5;entryY=1;entryDx=0;entryDy=0;" edge="1" parent="1" source="Ufu5qyInsuBGxWGtbbvC-41" target="Ufu5qyInsuBGxWGtbbvC-45">
          <mxGeometry relative="1" as="geometry">
            <Array as="points">
              <mxPoint x="570" y="290" />
            </Array>
          </mxGeometry>
        </mxCell>
        <mxCell id="Ufu5qyInsuBGxWGtbbvC-73" style="edgeStyle=orthogonalEdgeStyle;rounded=0;orthogonalLoop=1;jettySize=auto;html=1;entryX=0.142;entryY=0.996;entryDx=0;entryDy=0;entryPerimeter=0;" edge="1" parent="1" source="Ufu5qyInsuBGxWGtbbvC-34" target="Ufu5qyInsuBGxWGtbbvC-30">
          <mxGeometry relative="1" as="geometry" />
        </mxCell>
        <mxCell id="Ufu5qyInsuBGxWGtbbvC-74" style="edgeStyle=orthogonalEdgeStyle;rounded=0;orthogonalLoop=1;jettySize=auto;html=1;entryX=0.218;entryY=0.967;entryDx=0;entryDy=0;entryPerimeter=0;" edge="1" parent="1" source="Ufu5qyInsuBGxWGtbbvC-55" target="Ufu5qyInsuBGxWGtbbvC-56">
          <mxGeometry relative="1" as="geometry" />
        </mxCell>
        <mxCell id="Ufu5qyInsuBGxWGtbbvC-76" style="edgeStyle=orthogonalEdgeStyle;rounded=0;orthogonalLoop=1;jettySize=auto;html=1;entryX=0.556;entryY=0.8;entryDx=0;entryDy=0;entryPerimeter=0;" edge="1" parent="1" source="Ufu5qyInsuBGxWGtbbvC-54" target="Ufu5qyInsuBGxWGtbbvC-67">
          <mxGeometry relative="1" as="geometry" />
        </mxCell>
        <mxCell id="Ufu5qyInsuBGxWGtbbvC-77" style="edgeStyle=orthogonalEdgeStyle;rounded=0;orthogonalLoop=1;jettySize=auto;html=1;entryX=0.167;entryY=-0.05;entryDx=0;entryDy=0;entryPerimeter=0;" edge="1" parent="1" source="Ufu5qyInsuBGxWGtbbvC-45" target="Ufu5qyInsuBGxWGtbbvC-55">
          <mxGeometry relative="1" as="geometry">
            <Array as="points">
              <mxPoint x="640" y="125" />
            </Array>
          </mxGeometry>
        </mxCell>
      </root>
    </mxGraphModel>
  </diagram>
</mxfile>
